<?xml version="1.0" encoding="utf-8"?>
<!-- Generator: Adobe Illustrator 22.0.1, SVG Export Plug-In . SVG Version: 6.00 Build 0)  -->
<svg version="1.1" id="M_Logo" xmlns="http://www.w3.org/2000/svg" xmlns:xlink="http://www.w3.org/1999/xlink" x="0px" y="0px"
	 viewBox="0 0 1000 964" style="enable-background:new 0 0 1000 964;" xml:space="preserve">
<style type="text/css">
	.st0{fill:url(#RBase_1_);}
	.st1{fill:url(#ROuter_1_);}
	.st2{fill:url(#RInner_1_);}
	.st3{fill:url(#RShadow_1_);}
	.st4{fill:url(#LBase_1_);}
	.st5{fill:url(#LOuter_1_);}
	.st6{fill:url(#LInner_1_);}
	.st7{fill:url(#LShadow_1_);}
	.st8{fill:url(#Split_Bottom_1_);}
	.st9{fill:url(#Split_Bottom_Flash_1_);}
	.st10{fill:url(#Split_Top_1_);}
	.st11{fill:url(#Split_Top_Flash_1_);}
	.st12{fill:url(#Fold_Top_1_);}
	.st13{fill:url(#Fold_Bottom_1_);}
	.st14{fill:url(#Fold_Shadow_1_);}
</style>
<g>
	<linearGradient id="RBase_1_" gradientUnits="userSpaceOnUse" x1="1068.6184" y1="889.2881" x2="787.433" y2="265.191">
		<stop  offset="0" style="stop-color:#DC629E"/>
		<stop  offset="1" style="stop-color:#D53773"/>
	</linearGradient>
	<path id="RBase" class="st0" d="M861.4,963.9c54.8,0.8,102.6-30.9,125-77.3c8.4-17.4,13.2-36.8,13.5-57.3c0-0.7,0-1.3,0-2l0.1,0
		c0,0,0-827.2,0-827.2c0,27.8-8.9,54.9-25.4,77.3L722.8,419.8v369.4l0.2,13.5l0.7,13.9l1.2,14.2l1.8,14.4l2.5,14.5l3.3,14.4
		l4.3,14.1l2.6,6.9l2.9,6.7l3.3,6.5l3.7,6.3l4.1,6.1l4.6,5.8l5.1,5.5l5.6,5.2l6.2,4.8l6.8,4.4l7.4,4l8.1,3.5l8.8,3l9.5,2.5l10.3,2
		l11.1,1.4l11.9,0.9L861.4,963.9z"/>
	<linearGradient id="ROuter_1_" gradientUnits="userSpaceOnUse" x1="940.5955" y1="280.2994" x2="983.4285" y2="890.7675">
		<stop  offset="0" style="stop-color:#EA5E80"/>
		<stop  offset="0.1708" style="stop-color:#EC6E87"/>
		<stop  offset="0.459" style="stop-color:#EF8490"/>
		<stop  offset="0.7393" style="stop-color:#F19195"/>
		<stop  offset="1" style="stop-color:#F29597"/>
	</linearGradient>
	<path id="ROuter" class="st1" d="M986.4,886.6c8.4-17.4,13.2-36.8,13.5-57.3c0-0.7,0-1.3,0-2l0.1,0c0,0,0-827.2,0-827.2
		c0,27.8-8.9,54.9-25.4,77.3l-83,113v490.6l0.1,11.5l0.2,11.1l0.4,10.6l0.5,10.2l0.7,9.8l0.8,9.3l2,17.5l2.6,16.1l3.3,14.7l3.9,13.5
		l4.7,12.4l5.5,11.5l6.4,10.6l7.4,9.7l8.6,8.9l9.8,8.2l11.2,7.4l6.1,3.4l6.5,3.2l6.9,3L986.4,886.6z"/>
	<linearGradient id="RInner_1_" gradientUnits="userSpaceOnUse" x1="782.5455" y1="419.1052" x2="821.1711" y2="825.4744">
		<stop  offset="0" style="stop-color:#EA5E80"/>
		<stop  offset="0.1764" style="stop-color:#EC6F87"/>
		<stop  offset="0.4597" style="stop-color:#F08490"/>
		<stop  offset="0.7372" style="stop-color:#F19195"/>
		<stop  offset="1" style="stop-color:#F29597"/>
	</linearGradient>
	<polygon id="RInner" class="st2" points="831.2,829.3 819.5,824.6 809,819.7 799.5,814.5 791,809 783.5,803.2 776.8,796.8 771,790 
		765.8,782.4 761.4,774.1 757.5,764.9 755.8,759.9 754.3,754.5 752.9,748.9 751.7,743 750.6,736.6 749.6,729.9 748.8,722.9 
		748.1,715.4 747.6,707.4 747.2,699.1 747,690.3 746.9,681 746.9,387 831.2,272.3 	"/>
	<linearGradient id="RShadow_1_" gradientUnits="userSpaceOnUse" x1="405.008" y1="-13.611" x2="789.5502" y2="373.5419">
		<stop  offset="0" style="stop-color:#000000"/>
		<stop  offset="1" style="stop-color:#000000;stop-opacity:0"/>
	</linearGradient>
	<path id="RShadow" class="st3" d="M861.4,963.9c54.8,0.8,102.6-30.9,125-77.3c8.4-17.4,13.2-36.8,13.5-57.3c0-0.7,0-1.3,0-2l0.1,0
		c0,0,0-827.2,0-827.2c0,27.8-8.9,54.9-25.4,77.3L722.8,419.8v369.4l0.2,13.5l0.7,13.9l1.2,14.2l1.8,14.4l2.5,14.5l3.3,14.4
		l4.3,14.1l2.6,6.9l2.9,6.7l3.3,6.5l3.7,6.3l4.1,6.1l4.6,5.8l5.1,5.5l5.6,5.2l6.2,4.8l6.8,4.4l7.4,4l8.1,3.5l8.8,3l9.5,2.5l10.3,2
		l11.1,1.4l11.9,0.9L861.4,963.9z"/>
	<linearGradient id="LBase_1_" gradientUnits="userSpaceOnUse" x1="156.2604" y1="215.7513" x2="95.2496" y2="866.6636">
		<stop  offset="3.597122e-03" style="stop-color:#998FD2"/>
		<stop  offset="1" style="stop-color:#3D437A"/>
	</linearGradient>
	<path id="LBase" class="st4" d="M138.6,963.9c-54.8,0.8-102.6-30.9-125-77.3c-8.4-17.4-13.2-36.8-13.5-57.3c0-0.7,0-1.3,0-2l-0.1,0
		c0,0,0-827.2,0-827.2C0,28,8.9,55.1,25.4,77.5l251.8,342.3v369.4l-0.2,13.5l-0.7,13.9l-1.2,14.2l-1.8,14.4l-2.5,14.5l-3.3,14.4
		l-4.3,14.1l-2.6,6.9l-2.9,6.7l-3.3,6.5l-3.7,6.3l-4.1,6.1l-4.6,5.8l-5.1,5.5l-5.6,5.2l-6.2,4.8l-6.8,4.4l-7.4,4l-8.1,3.5l-8.8,3
		l-9.5,2.5l-10.3,2l-11.1,1.4l-11.9,0.9L138.6,963.9z"/>
	<linearGradient id="LOuter_1_" gradientUnits="userSpaceOnUse" x1="97.8065" y1="124.2877" x2="-49.7664" y2="950.3176">
		<stop  offset="0" style="stop-color:#CBB6E0"/>
		<stop  offset="6.234926e-02" style="stop-color:#BDACD9"/>
		<stop  offset="0.2737" style="stop-color:#928DC2"/>
		<stop  offset="0.4785" style="stop-color:#7075B1"/>
		<stop  offset="0.6725" style="stop-color:#5864A4"/>
		<stop  offset="0.8512" style="stop-color:#495A9D"/>
		<stop  offset="1" style="stop-color:#44569A"/>
	</linearGradient>
	<path id="LOuter" class="st5" d="M13.6,886.6c-8.4-17.4-13.2-36.8-13.5-57.3c0-0.7,0-1.3,0-2l-0.1,0c0,0,0-827.2,0-827.2
		C0,28,8.9,55.1,25.4,77.5l83,113v490.6l-0.1,11.5l-0.2,11.1l-0.4,10.6l-0.5,10.2l-0.7,9.8l-0.8,9.3l-2,17.5l-2.6,16.1l-3.3,14.7
		l-3.9,13.5l-4.7,12.4l-5.5,11.5l-6.4,10.6l-7.4,9.7l-8.6,8.9l-9.8,8.2l-11.2,7.4l-6.1,3.4l-6.5,3.2l-6.9,3L13.6,886.6z"/>
	<linearGradient id="LInner_1_" gradientUnits="userSpaceOnUse" x1="241.64" y1="257.4174" x2="158.5811" y2="888.9503">
		<stop  offset="0" style="stop-color:#CBB6E0"/>
		<stop  offset="0.1153" style="stop-color:#AFA2D2"/>
		<stop  offset="0.3003" style="stop-color:#8987BE"/>
		<stop  offset="0.484" style="stop-color:#6B72AE"/>
		<stop  offset="0.6639" style="stop-color:#5562A3"/>
		<stop  offset="0.838" style="stop-color:#48599C"/>
		<stop  offset="1" style="stop-color:#44569A"/>
	</linearGradient>
	<polygon id="LInner" class="st6" points="168.8,829.3 180.5,824.6 191,819.7 200.5,814.5 209,809 216.5,803.2 223.2,796.8 229,790 
		234.2,782.4 238.6,774.1 242.5,764.9 244.2,759.9 245.7,754.5 247.1,748.9 248.3,743 249.4,736.6 250.4,729.9 251.2,722.9 
		251.9,715.4 252.4,707.4 252.8,699.1 253,690.3 253.1,681 253.1,387 168.8,272.3 	"/>
	<linearGradient id="LShadow_1_" gradientUnits="userSpaceOnUse" x1="534.6903" y1="108.2045" x2="78.2869" y2="500.8843">
		<stop  offset="0" style="stop-color:#000000"/>
		<stop  offset="1" style="stop-color:#000000;stop-opacity:0"/>
	</linearGradient>
	<path id="LShadow" class="st7" d="M138.6,963.9c-54.8,0.8-102.6-30.9-125-77.3c-8.4-17.4-13.2-36.8-13.5-57.3c0-0.7,0-1.3,0-2
		l-0.1,0c0,0,0-827.2,0-827.2C0,28,8.9,55.1,25.4,77.5l251.8,342.3v369.4l-0.2,13.5l-0.7,13.9l-1.2,14.2l-1.8,14.4l-2.5,14.5
		l-3.3,14.4l-4.3,14.1l-2.6,6.9l-2.9,6.7l-3.3,6.5l-3.7,6.3l-4.1,6.1l-4.6,5.8l-5.1,5.5l-5.6,5.2l-6.2,4.8l-6.8,4.4l-7.4,4l-8.1,3.5
		l-8.8,3l-9.5,2.5l-10.3,2l-11.1,1.4l-11.9,0.9L138.6,963.9z"/>
	<linearGradient id="Split_Bottom_1_" gradientUnits="userSpaceOnUse" x1="261.4153" y1="-5.5749" x2="310.68" y2="740.5895">
		<stop  offset="0" style="stop-color:#D3CAE5"/>
		<stop  offset="2.551093e-02" style="stop-color:#E0D4EA"/>
		<stop  offset="0.1192" style="stop-color:#E3C9DC"/>
		<stop  offset="0.3495" style="stop-color:#EAB2BE"/>
		<stop  offset="0.5762" style="stop-color:#EEA2A8"/>
		<stop  offset="0.7957" style="stop-color:#F1989B"/>
		<stop  offset="1" style="stop-color:#F29597"/>
	</linearGradient>
	<path id="Split_Bottom" class="st8" d="M0,0.1C0,27.9,8.9,55,25.4,77.5l474.6,645.5l65.7-89.4l-433.1-589
		c-9.5-12.9-14.6-28.4-14.6-44.4H0z"/>
	<radialGradient id="Split_Bottom_Flash_1_" cx="620.1722" cy="753.9567" r="322.7652" gradientUnits="userSpaceOnUse">
		<stop  offset="0" style="stop-color:#ED5F45"/>
		<stop  offset="1" style="stop-color:#D64550;stop-opacity:0"/>
	</radialGradient>
	<path id="Split_Bottom_Flash" class="st9" d="M0,0.1C0,27.9,8.9,55,25.4,77.5l474.6,645.5l65.7-89.4l-433.1-589
		c-9.5-12.9-14.6-28.4-14.6-44.4H0z"/>
	<linearGradient id="Split_Top_1_" gradientUnits="userSpaceOnUse" x1="390.604" y1="-6.3098" x2="422.8588" y2="618.4103">
		<stop  offset="0" style="stop-color:#D3CAE5"/>
		<stop  offset="2.551093e-02" style="stop-color:#E0D4EA"/>
		<stop  offset="0.1192" style="stop-color:#E3C9DC"/>
		<stop  offset="0.3495" style="stop-color:#EAB2BE"/>
		<stop  offset="0.5762" style="stop-color:#EEA2A8"/>
		<stop  offset="0.7957" style="stop-color:#F1989B"/>
		<stop  offset="1" style="stop-color:#F29597"/>
	</linearGradient>
	<path id="Split_Top" class="st10" d="M277.1,0.1l377.2,513l-68.4,93.1L165.5,34.4c-7.3-9.9-11.3-22-11.3-34.3H277.1"/>
	
		<radialGradient id="Split_Top_Flash_1_" cx="675.1557" cy="710.5359" r="265.5234" fx="409.6884" fy="705.0762" gradientTransform="matrix(1 0 0 1.4661 0 -331.19)" gradientUnits="userSpaceOnUse">
		<stop  offset="0" style="stop-color:#D65736"/>
		<stop  offset="0.2547" style="stop-color:#D64A3D;stop-opacity:0.7453"/>
		<stop  offset="0.6405" style="stop-color:#D63D44;stop-opacity:0.3595"/>
		<stop  offset="1" style="stop-color:#D63946;stop-opacity:0"/>
	</radialGradient>
	<path id="Split_Top_Flash" class="st11" d="M277.1,0.1l377.2,513l-68.4,93.1L165.5,34.4c-7.3-9.9-11.3-22-11.3-34.3H277.1"/>
	<linearGradient id="Fold_Top_1_" gradientUnits="userSpaceOnUse" x1="519.5895" y1="246.8948" x2="837.2339" y2="145.7845">
		<stop  offset="0" style="stop-color:#F39664"/>
		<stop  offset="0.1131" style="stop-color:#F5A76B"/>
		<stop  offset="0.3449" style="stop-color:#FAC576"/>
		<stop  offset="0.5732" style="stop-color:#FDDB7E"/>
		<stop  offset="0.7943" style="stop-color:#FEE883"/>
		<stop  offset="1" style="stop-color:#FFEC85"/>
	</linearGradient>
	<polygon id="Fold_Top" class="st12" points="880.1,0.1 578.6,410.2 499.9,303.2 722.8,0.1 	"/>
	<linearGradient id="Fold_Bottom_1_" gradientUnits="userSpaceOnUse" x1="671.2632" y1="620.9284" x2="838.5898" y2="44.4186">
		<stop  offset="0" style="stop-color:#F08569"/>
		<stop  offset="0.1629" style="stop-color:#F18B6B"/>
		<stop  offset="0.3886" style="stop-color:#F49D70"/>
		<stop  offset="0.6508" style="stop-color:#F8BB78"/>
		<stop  offset="0.9387" style="stop-color:#FEE383"/>
		<stop  offset="0.9946" style="stop-color:#FFEC85"/>
	</linearGradient>
	<path id="Fold_Bottom" class="st13" d="M654.2,513.1L974.5,77.5C991,55,999.9,27.9,999.9,0.1H880.1L578.6,410.2L654.2,513.1z"/>
	<linearGradient id="Fold_Shadow_1_" gradientUnits="userSpaceOnUse" x1="142.6816" y1="281.9289" x2="654.3228" y2="258.1879">
		<stop  offset="0" style="stop-color:#000000"/>
		<stop  offset="1" style="stop-color:#000000;stop-opacity:0"/>
	</linearGradient>
	<path id="Fold_Shadow" class="st14" d="M974.5,77.5L654.2,513.1L499.9,303.2L722.8,0.1h277.1L974.5,77.5
		C991,55,999.9,27.9,999.9,0.1"/>
</g>
</svg>
